{"asset":{"version":"2.0","generator":"Blockbench 5.0.7 glTF exporter"},"scenes":[{"nodes":[0,2],"name":"blockbench_export"}],"scene":0,"nodes":[{"rotation":[-0.07345863825601283,-0.8432432834318929,0.046209958177234146,0.53048019112671],"translation":[0.01708375,-0.17107625,0.1015575],"name":"Below_Tree","mesh":0},{"rotation":[-0.4897486170036164,-0.32088327847599696,0.5030892102324194,0.6356740204580186],"translation":[-0.06249999999999997,7.000000000000001,-0.25],"name":"Tree-col","mesh":1},{"translation":[0.29208375,7.27892375,-0.0796925],"name":"Weird Branches","children":[1]}],"bufferViews":[{"buffer":0,"byteOffset":0,"byteLength":12672,"target":34962,"byteStride":12},{"buffer":0,"byteOffset":12672,"byteLength":12672,"target":34962,"byteStride":12},{"buffer":0,"byteOffset":25344,"byteLength":8448,"target":34962,"byteStride":8},{"buffer":0,"byteOffset":33792,"byteLength":2904,"target":34963},{"buffer":0,"byteOffset":36696,"byteLength":422856,"target":34962,"byteStride":12},{"buffer":0,"byteOffset":459552,"byteLength":422856,"target":34962,"byteStride":12},{"buffer":0,"byteOffset":882408,"byteLength":281904,"target":34962,"byteStride":8},{"buffer":0,"byteOffset":1164312,"byteLength":84252,"target":34963}],"buffers":[{"byteLength":1248564,"uri":"data:application/octet-stream;base64,"}],"accessors":[{"bufferView":0,"componentType":5126,"count":1056,"max":[0.8003793954849243,0.96875,0.8302718997001648],"min":[-0.8246206045150757,-0.46875,-0.7947281002998352],"type":"VEC3"},{"bufferView":1,"componentType":5126,"count":1056,"max":[1,1,1],"min":[-1,-1,-1],"type":"VEC3"},{"bufferView":2,"componentType":5126,"count":1056,"max":[0.0234375,0.0234375],"min":[0,0],"type":"VEC2"},{"bufferView":3,"componentType":5123,"count":1452,"max":[1055],"min":[0],"type":"SCALAR"},{"bufferView":4,"componentType":5126,"count":35238,"max":[10.178484916687012,5.890048980712891,7.998781204223633],"min":[-13.817717552185059,-5.885241508483887,-4.860549449920654],"type":"VEC3"},{"bufferView":5,"componentType":5126,"count":35238,"max":[1,1,1],"min":[-1,-1,-1],"type":"VEC3"},{"bufferView":6,"componentType":5126,"count":35238,"max":[0.5625,0.5282269716262817],"min":[0,0],"type":"VEC2"},{"bufferView":7,"componentType":5123,"count":42126,"max":[35237],"min":[0],"type":"SCALAR"}],"materials":[{"pbrMetallicRoughness":{"metallicFactor":0,"roughnessFactor":1},"alphaMode":"MASK","alphaCutoff":0.05,"doubleSided":true},{"pbrMetallicRoughness":{"metallicFactor":0,"roughnessFactor":1,"baseColorTexture":{"index":0}},"alphaMode":"MASK","alphaCutoff":0.05,"doubleSided":true}],"meshes":[{"primitives":[{"mode":4,"attributes":{"POSITION":0,"NORMAL":1,"TEXCOORD_0":2},"indices":3,"material":0}]},{"primitives":[{"mode":4,"attributes":{"POSITION":4,"NORMAL":5,"TEXCOORD_0":6},"indices":7,"material":1}]}],"textures":[{"sampler":0,"source":0,"name":"Tree"}],"samplers":[{"magFilter":9728,"minFilter":9728,"wrapS":33071,"wrapT":33071}],"images":[{"mimeType":"image/png","uri":"data:image/png;base64,"}]}